<svg width="192" height="192" viewBox="0 0 192 192" fill="none" xmlns="http://www.w3.org/2000/svg">
<mask id="mask0_571_81242" style="mask-type:alpha" maskUnits="userSpaceOnUse" x="14" y="0" width="164" height="192">
<path d="M114 19.3871C114 29.542 105.941 37.7742 96 37.7742C86.0589 37.7742 78 29.542 78 19.3871C78 9.23218 86.0589 1 96 1C105.941 1 114 9.23218 114 19.3871Z" stroke="white" stroke-width="2"/>
<path d="M177 60.7581C177 54.8344 172.299 50.0323 166.5 50.0323H25.5C19.701 50.0323 15 54.8344 15 60.7581C15 66.6818 19.701 71.4839 25.5 71.4839H51C57.6274 71.4839 63 76.972 63 83.7419V178.742C63 185.512 68.3726 191 75 191C81.6274 191 87 185.512 87 178.742V145.032C87 139.955 91.0294 135.839 96 135.839C100.971 135.839 105 139.955 105 145.032V178.742C105 185.512 110.373 191 117 191C123.627 191 129 185.512 129 178.742V83.7419C129 76.972 134.373 71.4839 141 71.4839H166.5C172.299 71.4839 177 66.6818 177 60.7581Z" stroke="white" stroke-width="2"/>
</mask>
<g mask="url(#mask0_571_81242)">
<g clip-path="url(#clip0_571_81242)">
<rect width="172" height="192" transform="translate(10)" fill="#8B418F"/>
<mask id="mask1_571_81242" style="mask-type:alpha" maskUnits="userSpaceOnUse" x="10" y="0" width="172" height="192">
<rect x="10" width="172" height="192" fill="url(#paint0_linear_571_81242)"/>
</mask>
<g mask="url(#mask1_571_81242)">
<rect x="10" width="172" height="192" fill="#8B418F"/>
</g>
</g>
</g>
<defs>
<linearGradient id="paint0_linear_571_81242" x1="181.286" y1="-3.62496e-06" x2="56.5573" y2="218.569" gradientUnits="userSpaceOnUse">
<stop stop-color="white"/>
<stop offset="1" stop-color="white" stop-opacity="0"/>
</linearGradient>
<clipPath id="clip0_571_81242">
<rect width="172" height="192" fill="white" transform="translate(10)"/>
</clipPath>
</defs>
</svg>
