<svg width="64" height="64" viewBox="0 0 64 64" fill="none" xmlns="http://www.w3.org/2000/svg">
<mask id="mask0_358_15335" style="mask-type:alpha" maskUnits="userSpaceOnUse" x="4" y="0" width="56" height="64">
<path d="M38 7C38 10.3137 35.3137 13 32 13C28.6863 13 26 10.3137 26 7C26 3.68629 28.6863 1 32 1C35.3137 1 38 3.68629 38 7Z" stroke="white" stroke-width="2"/>
<path d="M59 20.5C59 18.567 57.433 17 55.5 17H8.5C6.567 17 5 18.567 5 20.5C5 22.433 6.567 24 8.5 24H17C19.2091 24 21 25.7909 21 28V59C21 61.2091 22.7909 63 25 63C27.2091 63 29 61.2091 29 59V48C29 46.3431 30.3431 45 32 45C33.6569 45 35 46.3431 35 48V59C35 61.2091 36.7909 63 39 63C41.2091 63 43 61.2091 43 59V28C43 25.7909 44.7909 24 47 24H55.5C57.433 24 59 22.433 59 20.5Z" stroke="white" stroke-width="2"/>
</mask>
<g mask="url(#mask0_358_15335)">
<g clip-path="url(#clip0_358_15335)">
<rect width="64" height="64" fill="#8B418F"/>
<mask id="mask1_358_15335" style="mask-type:alpha" maskUnits="userSpaceOnUse" x="0" y="0" width="64" height="64">
<rect width="64" height="64" fill="url(#paint0_linear_358_15335)"/>
</mask>
<g mask="url(#mask1_358_15335)">
<rect width="64" height="64" fill="#8B418F"/>
</g>
</g>
</g>
<defs>
<linearGradient id="paint0_linear_358_15335" x1="63.7344" y1="-1.20832e-06" x2="24.5899" y2="76.5708" gradientUnits="userSpaceOnUse">
<stop stop-color="white"/>
<stop offset="1" stop-color="white" stop-opacity="0"/>
</linearGradient>
<clipPath id="clip0_358_15335">
<rect width="64" height="64" fill="white"/>
</clipPath>
</defs>
</svg>
