<svg width="64" height="64" viewBox="0 0 64 64" fill="none" xmlns="http://www.w3.org/2000/svg">
<mask id="mask0_375_15365" style="mask-type:alpha" maskUnits="userSpaceOnUse" x="2" y="5" width="60" height="54">
<path fill-rule="evenodd" clip-rule="evenodd" d="M15.0054 10.37C15.7008 8.35338 17.5991 7 19.7323 7H44.4495C46.5827 7 48.481 8.35338 49.1764 10.37L53.0011 21.4618C52.8802 21.457 52.7585 21.4545 52.6364 21.4545L11.1832 21.4545L15.0054 10.37ZM9.01008 21.6753C9.01898 21.6141 9.03372 21.5528 9.05463 21.4922L13.1147 9.71806C14.0882 6.89473 16.7458 5 19.7323 5H44.4495C47.436 5 50.0936 6.89473 51.0672 9.71807L55.1272 21.4922C55.1646 21.6006 55.1822 21.7111 55.1821 21.8196C58.9129 22.9178 61.6364 26.3681 61.6364 30.4545V47.4545V49.4545H59.6364H55.1818V49.4546V53.3637C55.1818 56.1251 52.9432 58.3637 50.1818 58.3637C47.4203 58.3637 45.1818 56.1251 45.1818 53.3637V49.4546V49.4545H19V49.4546V53.3637C19 56.1251 16.7614 58.3637 14 58.3637C11.2386 58.3637 9 56.1251 9 53.3637V49.4546V49.4545H4H2V47.4545V30.4545C2 26.1678 4.99704 22.581 9.01008 21.6753ZM47.1818 49.4546H53.1818V53.3637C53.1818 55.0205 51.8386 56.3637 50.1818 56.3637C48.5249 56.3637 47.1818 55.0205 47.1818 53.3637V49.4546ZM17 49.4546H11V53.3637C11 55.0205 12.3431 56.3637 14 56.3637C15.6569 56.3637 17 55.0205 17 53.3637V49.4546ZM59.6364 30.4545V45.4545V47.4545H57.6364L6 47.4545H4V45.4545V30.4545C4 26.5886 7.13401 23.4545 11 23.4545L52.6364 23.4545C56.5024 23.4545 59.6364 26.5886 59.6364 30.4545ZM17.1599 33.7995C17.1599 35.7074 15.6133 37.2541 13.7054 37.2541C11.7975 37.2541 10.2508 35.7074 10.2508 33.7995C10.2508 31.8916 11.7975 30.345 13.7054 30.345C15.6133 30.345 17.1599 31.8916 17.1599 33.7995ZM53.1599 33.7995C53.1599 35.7074 51.6133 37.2541 49.7054 37.2541C47.7975 37.2541 46.2509 35.7074 46.2509 33.7995C46.2509 31.8916 47.7975 30.345 49.7054 30.345C51.6133 30.345 53.1599 31.8916 53.1599 33.7995ZM19.1599 33.7995C19.1599 36.812 16.7179 39.2541 13.7054 39.2541C10.6929 39.2541 8.25085 36.812 8.25085 33.7995C8.25085 30.7871 10.6929 28.345 13.7054 28.345C16.7179 28.345 19.1599 30.7871 19.1599 33.7995ZM49.7054 39.2541C52.7179 39.2541 55.1599 36.812 55.1599 33.7995C55.1599 30.7871 52.7179 28.345 49.7054 28.345C46.6929 28.345 44.2509 30.7871 44.2509 33.7995C44.2509 36.812 46.6929 39.2541 49.7054 39.2541Z" fill="url(#paint0_linear_375_15365)"/>
</mask>
<g mask="url(#mask0_375_15365)">
<g clip-path="url(#clip0_375_15365)">
<rect width="64" height="64" transform="matrix(1 0 0 -1 0 64)" fill="#8B418F"/>
<mask id="mask1_375_15365" style="mask-type:alpha" maskUnits="userSpaceOnUse" x="0" y="0" width="64" height="64">
<rect width="64" height="64" transform="matrix(1 0 0 -1 0 64)" fill="url(#paint1_linear_375_15365)"/>
</mask>
<g mask="url(#mask1_375_15365)">
<rect width="64" height="64" transform="matrix(1 0 0 -1 0 64)" fill="#8B418F"/>
</g>
</g>
</g>
<defs>
<linearGradient id="paint0_linear_375_15365" x1="6.65909" y1="5" x2="55.1161" y2="63.7422" gradientUnits="userSpaceOnUse">
<stop stop-color="#5DD5FC"/>
<stop offset="1" stop-color="#FFA9FE"/>
</linearGradient>
<linearGradient id="paint1_linear_375_15365" x1="63.7344" y1="-1.56466e-06" x2="24.59" y2="76.5709" gradientUnits="userSpaceOnUse">
<stop stop-color="white" stop-opacity="0"/>
<stop offset="1" stop-color="white"/>
</linearGradient>
<clipPath id="clip0_375_15365">
<rect width="64" height="64" fill="white" transform="matrix(1 0 0 -1 0 64)"/>
</clipPath>
</defs>
</svg>
