<svg width="64" height="64" viewBox="0 0 64 64" fill="none" xmlns="http://www.w3.org/2000/svg">
<mask id="mask0_375_15397" style="mask-type:alpha" maskUnits="userSpaceOnUse" x="0" y="0" width="64" height="64">
<path d="M52 35V57.5C52 60.5376 54.4624 63 57.5 63C60.5376 63 63 60.5376 63 57.5V20C63 15.5817 59.4183 12 55 12H21M21 1H6.5C3.46243 1 1 3.46243 1 6.5M48 52H38.1534M15 12H6.5C3.46243 12 1 9.53757 1 6.5M1 6.5V44C1 48.4183 4.58172 52 9 52H13.8466M26 24C23.2386 24 21 26.2386 21 29C21 30.4183 21.5906 31.6987 22.5392 32.6087M26 24C28.7614 24 31 26.2386 31 29C31 30.4184 30.4094 31.6988 29.4608 32.6088M26 24V19M29.4608 32.6088C28.5625 33.4705 27.3431 34 26 34C24.6569 34 23.4375 33.4704 22.5392 32.6087M29.4608 32.6088L38.1534 52M22.5392 32.6087L13.8466 52M13.8466 52L10.7187 58.9775C10.1539 60.2375 10.7175 61.7167 11.9774 62.2815C13.2373 62.8462 14.7165 62.2827 15.2813 61.0228L19.326 52M32.674 52L36.7187 61.0228C37.2835 62.2827 38.7627 62.8462 40.0227 62.2815C41.2826 61.7167 41.8461 60.2375 41.2813 58.9775L38.1534 52M32.674 52L29.65 45.2542C28.2372 42.1025 23.7628 42.1025 22.3499 45.2542L19.326 52M32.674 52H19.326" stroke="#C4C4C4" stroke-width="2" stroke-linecap="round"/>
</mask>
<g mask="url(#mask0_375_15397)">
<g clip-path="url(#clip0_375_15397)">
<rect width="64" height="64" transform="matrix(1 0 0 -1 0 64)" fill="#8B418F"/>
<mask id="mask1_375_15397" style="mask-type:alpha" maskUnits="userSpaceOnUse" x="0" y="0" width="64" height="64">
<rect width="64" height="64" transform="matrix(1 0 0 -1 0 64)" fill="url(#paint0_linear_375_15397)"/>
</mask>
<g mask="url(#mask1_375_15397)">
<rect width="64" height="64" transform="matrix(1 0 0 -1 0 64)" fill="#8B418F"/>
</g>
</g>
</g>
<defs>
<linearGradient id="paint0_linear_375_15397" x1="63.7344" y1="-1.20832e-06" x2="24.5899" y2="76.5708" gradientUnits="userSpaceOnUse">
<stop stop-color="white"/>
<stop offset="1" stop-color="white" stop-opacity="0"/>
</linearGradient>
<clipPath id="clip0_375_15397">
<rect width="64" height="64" fill="white" transform="matrix(1 0 0 -1 0 64)"/>
</clipPath>
</defs>
</svg>
