<svg width="21" height="18" viewBox="0 0 21 18" fill="none" xmlns="http://www.w3.org/2000/svg">
<path d="M18.95 3.55C18.57 3.17 17.94 3.17 17.56 3.55L15.39 5.7C15 6.08 15 6.71 15.39 7.09L15.4 7.1C15.79 7.49 16.41 7.49 16.8 7.1C17.42 6.47 18.32 5.56 18.95 4.93C19.33 4.55 19.33 3.93 18.95 3.55Z" fill="#201A1B"/>
<path d="M10.52 0H10.49C9.94 0 9.5 0.44 9.5 0.98V4.01C9.5 4.56 9.94 5 10.48 5H10.51C11.06 5 11.5 4.56 11.5 4.02V0.98C11.5 0.44 11.06 0 10.52 0Z" fill="#201A1B"/>
<path d="M5.6 7.11L5.61 7.1C5.99 6.72 5.99 6.09 5.61 5.71L3.46 3.54C3.08 3.15 2.45 3.15 2.07 3.54L2.05 3.55C1.66 3.94 1.66 4.56 2.05 4.94C2.68 5.56 3.58 6.48 4.2 7.11C4.59 7.49 5.22 7.49 5.6 7.11Z" fill="#201A1B"/>
<path fill-rule="evenodd" clip-rule="evenodd" d="M7.74 10.17C8.19 11.25 9.26 12 10.5 12C11.74 12 12.81 11.25 13.26 10.17C13.58 9.43 14.36 9 15.16 9H18.5C19.6 9 20.5 9.9 20.5 11V16C20.5 17.1 19.6 18 18.5 18H2.5C1.4 18 0.5 17.1 0.5 16V11C0.5 9.9 1.4 9 2.5 9H5.84C6.64 9 7.42 9.43 7.74 10.17ZM18.5 11H15.08C14.31 12.76 12.54 14 10.5 14C8.46 14 6.69 12.76 5.92 11H2.5V16H18.5V11Z" fill="#201A1B"/>
</svg>
