<svg width="32" height="32" viewBox="0 0 32 32" fill="none" xmlns="http://www.w3.org/2000/svg">
<mask id="mask0_415_6669" style="mask-type:alpha" maskUnits="userSpaceOnUse" x="1" y="1" width="30" height="30">
<path fill-rule="evenodd" clip-rule="evenodd" d="M3.5 7.24839V13.7516C4.24433 13.4194 5.18007 13.1374 6.23713 12.9025C8.77037 12.3396 12.2216 12 16 12C19.7784 12 23.2296 12.3396 25.7629 12.9025C26.8199 13.1374 27.7557 13.4194 28.5 13.7516V7.24839C27.7557 7.58056 26.8199 7.86261 25.7629 8.09751C23.2296 8.66045 19.7784 9 16 9C12.2216 9 8.77037 8.66045 6.23713 8.09751C5.18007 7.86261 4.24433 7.58056 3.5 7.24839ZM30.5 5V16V27C30.5 27.5331 30.2524 27.9659 29.9614 28.282C29.6752 28.5927 29.3013 28.8444 28.9042 29.053C28.1079 29.4714 27.0214 29.8178 25.7629 30.0975C23.2296 30.6604 19.7784 31 16 31C12.2216 31 8.77037 30.6604 6.23713 30.0975C4.97862 29.8178 3.89207 29.4714 3.09579 29.053C2.69868 28.8444 2.32477 28.5927 2.03865 28.282C1.74759 27.9659 1.5 27.5331 1.5 27V16V5C1.5 4.46688 1.74759 4.03409 2.03865 3.71801C2.32477 3.40729 2.69868 3.15565 3.09579 2.94701C3.89207 2.52865 4.97862 2.18216 6.23713 1.90249C8.77037 1.33955 12.2216 1 16 1C19.7784 1 23.2296 1.33955 25.7629 1.90249C27.0214 2.18216 28.1079 2.52865 28.9042 2.94701C29.3013 3.15565 29.6752 3.40729 29.9614 3.71801C30.2524 4.03409 30.5 4.46688 30.5 5ZM3.5 18.2484V24.7516C4.24433 24.4194 5.18007 24.1374 6.23713 23.9025C8.77037 23.3396 12.2216 23 16 23C19.7784 23 23.2296 23.3396 25.7629 23.9025C26.8199 24.1374 27.7557 24.4194 28.5 24.7516V18.2484C27.7557 18.5806 26.8199 18.8626 25.7629 19.0975C23.2296 19.6604 19.7784 20 16 20C12.2216 20 8.77037 19.6604 6.23713 19.0975C5.18007 18.8626 4.24433 18.5806 3.5 18.2484ZM28.4131 16C28.3243 15.9247 28.1841 15.8279 27.974 15.7175C27.404 15.418 26.5135 15.1181 25.329 14.8549C22.9762 14.332 19.6774 14 16 14C12.3226 14 9.02379 14.332 6.67099 14.8549C5.48648 15.1181 4.59599 15.418 4.026 15.7175C3.81589 15.8279 3.67566 15.9247 3.58687 16C3.67566 16.0753 3.81589 16.1721 4.026 16.2825C4.59599 16.582 5.48648 16.8819 6.67099 17.1451C9.02379 17.668 12.3226 18 16 18C19.6774 18 22.9762 17.668 25.329 17.1451C26.5135 16.8819 27.404 16.582 27.974 16.2825C28.1841 16.1721 28.3243 16.0753 28.4131 16ZM28.4131 27C28.3243 26.9247 28.1841 26.8279 27.974 26.7175C27.404 26.4181 26.5135 26.1181 25.329 25.8549C22.9762 25.332 19.6774 25 16 25C12.3226 25 9.02379 25.332 6.67099 25.8549C5.48648 26.1181 4.59599 26.4181 4.026 26.7175C3.8159 26.8279 3.67566 26.9247 3.58687 27C3.67566 27.0753 3.8159 27.1721 4.026 27.2825C4.59599 27.5819 5.48648 27.8819 6.67099 28.1451C9.02379 28.668 12.3226 29 16 29C19.6774 29 22.9762 28.668 25.329 28.1451C26.5135 27.8819 27.404 27.5819 27.974 27.2825C28.1841 27.1721 28.3243 27.0753 28.4131 27ZM28.4131 5C28.3243 4.92473 28.1841 4.82791 27.974 4.71752C27.404 4.41805 26.5135 4.11809 25.329 3.85487C22.9762 3.33202 19.6774 3 16 3C12.3226 3 9.02379 3.33202 6.67099 3.85487C5.48648 4.11809 4.59599 4.41805 4.026 4.71752C3.8159 4.82791 3.67566 4.92473 3.58687 5C3.67566 5.07527 3.8159 5.17209 4.026 5.28248C4.59599 5.58195 5.48648 5.88191 6.67099 6.14513C9.02379 6.66798 12.3226 7 16 7C19.6774 7 22.9762 6.66798 25.329 6.14513C26.5135 5.88191 27.404 5.58195 27.974 5.28248C28.1841 5.17209 28.3243 5.07527 28.4131 5Z" fill="url(#paint0_linear_415_6669)"/>
</mask>
<g mask="url(#mask0_415_6669)">
<g clip-path="url(#clip0_415_6669)">
<rect width="32" height="32" transform="matrix(1 0 0 -1 0 32)" fill="#8B418F"/>
<mask id="mask1_415_6669" style="mask-type:alpha" maskUnits="userSpaceOnUse" x="0" y="0" width="32" height="32">
<rect width="32" height="32" transform="matrix(1 0 0 -1 0 32)" fill="url(#paint1_linear_415_6669)"/>
</mask>
<g mask="url(#mask1_415_6669)">
<rect width="32" height="32" transform="matrix(1 0 0 -1 0 32)" fill="#8B418F"/>
</g>
</g>
</g>
<defs>
<linearGradient id="paint0_linear_415_6669" x1="15.8429" y1="1.49648" x2="15.8429" y2="30.9489" gradientUnits="userSpaceOnUse">
<stop stop-color="#F2B3FF"/>
<stop offset="1" stop-color="#FF8B5E"/>
</linearGradient>
<linearGradient id="paint1_linear_415_6669" x1="31.8672" y1="-6.04159e-07" x2="12.295" y2="38.2854" gradientUnits="userSpaceOnUse">
<stop stop-color="white"/>
<stop offset="1" stop-color="white" stop-opacity="0"/>
</linearGradient>
<clipPath id="clip0_415_6669">
<rect width="32" height="32" fill="white" transform="matrix(1 0 0 -1 0 32)"/>
</clipPath>
</defs>
</svg>
