<svg width="17" height="16" viewBox="0 0 17 16" fill="none" xmlns="http://www.w3.org/2000/svg">
<path d="M16.5 5C16.5 4.45 16.05 4 15.5 4H12.5V1C12.5 0.45 12.05 0 11.5 0C10.95 0 10.5 0.45 10.5 1V4H6.5V1C6.5 0.45 6.05 0 5.5 0C4.95 0 4.5 0.45 4.5 1V4H1.5C0.95 4 0.5 4.45 0.5 5C0.5 5.55 0.95 6 1.5 6H4.5V10H1.5C0.95 10 0.5 10.45 0.5 11C0.5 11.55 0.95 12 1.5 12H4.5V15C4.5 15.55 4.95 16 5.5 16C6.05 16 6.5 15.55 6.5 15V12H10.5V15C10.5 15.55 10.95 16 11.5 16C12.05 16 12.5 15.55 12.5 15V12H15.5C16.05 12 16.5 11.55 16.5 11C16.5 10.45 16.05 10 15.5 10H12.5V6H15.5C16.05 6 16.5 5.55 16.5 5ZM10.5 10H6.5V6H10.5V10Z" fill="#201A1B"/>
</svg>
