<svg width="25" height="24" viewBox="0 0 25 24" fill="none" xmlns="http://www.w3.org/2000/svg">
<path fill-rule="evenodd" clip-rule="evenodd" d="M12.505 5.17773C13.955 4.07773 16.055 3.67773 18.005 3.67773C19.455 3.67773 20.995 3.89773 22.275 4.46773C23.005 4.79773 23.495 5.50773 23.495 6.31773V17.5977C23.495 18.9077 22.275 19.8677 21.015 19.5377C20.035 19.2877 18.995 19.1777 17.995 19.1777C16.435 19.1777 14.775 19.4277 13.435 20.0977C12.845 20.3977 12.165 20.3977 11.565 20.0977C10.225 19.4377 8.565 19.1777 7.005 19.1777C6.005 19.1777 4.965 19.2877 3.985 19.5377C2.725 19.8577 1.505 18.8977 1.505 17.5977V6.31773C1.505 5.50773 1.995 4.79773 2.725 4.46773C4.015 3.89773 5.55501 3.67773 7.005 3.67773C8.955 3.67773 11.055 4.07773 12.505 5.17773ZM7.00001 5.5C8.34001 5.5 10.13 5.91 11.5 6.49V17.99C10.13 17.41 8.34001 17 7.00001 17C5.80001 17 4.60001 17.15 3.50001 17.5V6C4.60001 5.65 5.80001 5.5 7.00001 5.5ZM21.5 17.5C20.4 17.15 19.2 17 18 17C16.66 17 14.87 17.41 13.5 17.99V6.49C14.87 5.9 16.66 5.5 18 5.5C19.2 5.5 20.4 5.65 21.5 6V17.5Z" fill="#201A1B"/>
<path d="M18 9.5C18.88 9.5 19.73 9.59 20.5 9.76V8.24C19.71 8.09 18.86 8 18 8C16.72 8 15.54 8.16 14.5 8.47V10.04C15.49 9.69 16.68 9.5 18 9.5Z" fill="#201A1B"/>
<path d="M18 12.1602C18.88 12.1602 19.73 12.2502 20.5 12.4202V10.9002C19.71 10.7502 18.86 10.6602 18 10.6602C16.72 10.6602 15.54 10.8202 14.5 11.1302V12.7002C15.49 12.3602 16.68 12.1602 18 12.1602Z" fill="#201A1B"/>
<path d="M18 14.8301C18.88 14.8301 19.73 14.9201 20.5 15.0901V13.5701C19.71 13.4201 18.86 13.3301 18 13.3301C16.72 13.3301 15.54 13.4901 14.5 13.8001V15.3701C15.49 15.0201 16.68 14.8301 18 14.8301Z" fill="#201A1B"/>
<rect x="18.5" width="6" height="6" rx="3" fill="#BA1A1A"/>
</svg>
