<svg width="23" height="18" viewBox="0 0 23 18" fill="none" xmlns="http://www.w3.org/2000/svg">
<path fill-rule="evenodd" clip-rule="evenodd" d="M11.505 2.17773C12.955 1.07773 15.055 0.677734 17.005 0.677734C18.455 0.677734 19.995 0.897734 21.275 1.46773C22.005 1.79773 22.495 2.50773 22.495 3.31773V14.5977C22.495 15.9077 21.275 16.8677 20.015 16.5377C19.035 16.2877 17.995 16.1777 16.995 16.1777C15.435 16.1777 13.775 16.4277 12.435 17.0977C11.845 17.3977 11.165 17.3977 10.565 17.0977C9.22501 16.4377 7.565 16.1777 6.005 16.1777C5.005 16.1777 3.965 16.2877 2.985 16.5377C1.725 16.8577 0.505005 15.8977 0.505005 14.5977V3.31773C0.505005 2.50773 0.995005 1.79773 1.725 1.46773C3.015 0.897734 4.55501 0.677734 6.005 0.677734C7.955 0.677734 10.055 1.07773 11.505 2.17773ZM6.00001 2.5C7.34001 2.5 9.13001 2.91 10.5 3.49V14.99C9.13001 14.41 7.34001 14 6.00001 14C4.80001 14 3.60001 14.15 2.50001 14.5V3C3.60001 2.65 4.80001 2.5 6.00001 2.5ZM20.5 14.5C19.4 14.15 18.2 14 17 14C15.66 14 13.87 14.41 12.5 14.99V3.49C13.87 2.9 15.66 2.5 17 2.5C18.2 2.5 19.4 2.65 20.5 3V14.5Z" fill="#201A1B"/>
<path d="M17 6.5C17.88 6.5 18.73 6.59 19.5 6.76V5.24C18.71 5.09 17.86 5 17 5C15.72 5 14.54 5.16 13.5 5.47V7.04C14.49 6.69 15.68 6.5 17 6.5Z" fill="#201A1B"/>
<path d="M17 9.16016C17.88 9.16016 18.73 9.25016 19.5 9.42016V7.90016C18.71 7.75016 17.86 7.66016 17 7.66016C15.72 7.66016 14.54 7.82016 13.5 8.13016V9.70016C14.49 9.36016 15.68 9.16016 17 9.16016Z" fill="#201A1B"/>
<path d="M17 11.8301C17.88 11.8301 18.73 11.9201 19.5 12.0901V10.5701C18.71 10.4201 17.86 10.3301 17 10.3301C15.72 10.3301 14.54 10.4901 13.5 10.8001V12.3701C14.49 12.0201 15.68 11.8301 17 11.8301Z" fill="#201A1B"/>
</svg>
