<svg width="32" height="33" viewBox="0 0 32 33" fill="none" xmlns="http://www.w3.org/2000/svg">
<mask id="mask0_415_7323" style="mask-type:alpha" maskUnits="userSpaceOnUse" x="0" y="0" width="31" height="33">
<path d="M1 1L1.00005 30.5112C1.00005 30.9514 1.52348 31.1664 1.81953 30.8478L19.6723 11.7924C19.9684 11.4739 20.4918 11.6889 20.4918 12.129V20.3548C20.4918 20.7952 21.0155 21.0101 21.3115 20.6912L30 11.1613" stroke="#FFA8FF" stroke-width="2" stroke-linecap="round"/>
<path d="M29.9451 1.5C29.4476 5.99995 25.6326 9.5 21 9.5C16.3674 9.5 12.5524 5.99995 12.0549 1.5H29.9451Z" stroke="#FF8B5E" stroke-width="2"/>
</mask>
<g mask="url(#mask0_415_7323)">
<g clip-path="url(#clip0_415_7323)">
<rect width="32" height="32" transform="matrix(1 0 0 -1 0 32.5)" fill="#8B418F"/>
<mask id="mask1_415_7323" style="mask-type:alpha" maskUnits="userSpaceOnUse" x="0" y="0" width="32" height="33">
<rect width="32" height="32" transform="matrix(1 0 0 -1 0 32.5)" fill="url(#paint0_linear_415_7323)"/>
</mask>
<g mask="url(#mask1_415_7323)">
<rect width="32" height="32" transform="matrix(1 0 0 -1 0 32.5)" fill="#8B418F"/>
</g>
</g>
</g>
<path d="M12.0549 31.5C12.5524 27 16.3674 23.5 21 23.5C25.6326 23.5 29.4476 27 29.9451 31.5L12.0549 31.5Z" stroke="#8B418F" stroke-width="2"/>
<defs>
<linearGradient id="paint0_linear_415_7323" x1="31.8672" y1="-6.04159e-07" x2="12.295" y2="38.2854" gradientUnits="userSpaceOnUse">
<stop stop-color="white"/>
<stop offset="1" stop-color="white" stop-opacity="0"/>
</linearGradient>
<clipPath id="clip0_415_7323">
<rect width="32" height="32" fill="white" transform="matrix(1 0 0 -1 0 32.5)"/>
</clipPath>
</defs>
</svg>
