<svg width="192" height="192" viewBox="0 0 192 192" fill="none" xmlns="http://www.w3.org/2000/svg">
<circle cx="96" cy="96" r="96" fill="#EDDEE8"/>
<g clip-path="url(#clip0_654_31748)">
<g clip-path="url(#clip1_654_31748)">
<g clip-path="url(#clip2_654_31748)">
<g clip-path="url(#clip3_654_31748)">
<mask id="mask0_654_31748" style="mask-type:alpha" maskUnits="userSpaceOnUse" x="52" y="52" width="88" height="88">
<path d="M95.9998 96.0005C107.965 96.0005 117.656 86.3093 117.656 74.3442C117.656 62.3792 107.965 52.688 95.9998 52.688C84.0347 52.688 74.3435 62.3792 74.3435 74.3442C74.3435 86.3093 84.0347 96.0005 95.9998 96.0005ZM95.9998 106.829C81.5442 106.829 52.6873 114.083 52.6873 128.485V133.899C52.6873 136.877 55.1236 139.313 58.1013 139.313H133.898C136.876 139.313 139.312 136.877 139.312 133.899V128.485C139.312 114.083 110.455 106.829 95.9998 106.829Z" fill="url(#paint0_linear_654_31748)"/>
</mask>
<g mask="url(#mask0_654_31748)">
<rect width="86.625" height="86.625" transform="translate(52.6873 52.688)" fill="#8B418F"/>
<mask id="mask1_654_31748" style="mask-type:alpha" maskUnits="userSpaceOnUse" x="52" y="52" width="88" height="88">
<rect x="52.6873" y="52.688" width="86.625" height="86.625" fill="url(#paint1_linear_654_31748)"/>
</mask>
<g mask="url(#mask1_654_31748)">
<rect x="52.6873" y="52.688" width="86.625" height="86.625" fill="#A23F16"/>
</g>
</g>
</g>
</g>
</g>
</g>
<defs>
<linearGradient id="paint0_linear_654_31748" x1="52.6873" y1="52.688" x2="139.312" y2="124.875" gradientUnits="userSpaceOnUse">
<stop stop-color="#FFA8FF"/>
<stop offset="1" stop-color="#FF8B5E"/>
</linearGradient>
<linearGradient id="paint1_linear_654_31748" x1="138.953" y1="52.688" x2="85.9701" y2="156.328" gradientUnits="userSpaceOnUse">
<stop stop-color="white"/>
<stop offset="1" stop-color="white" stop-opacity="0"/>
</linearGradient>
<clipPath id="clip0_654_31748">
<rect width="128" height="128" fill="white" transform="translate(32 32)"/>
</clipPath>
<clipPath id="clip1_654_31748">
<rect width="128" height="128" fill="white" transform="translate(32 32)"/>
</clipPath>
<clipPath id="clip2_654_31748">
<rect width="126" height="126" fill="white" transform="translate(32.9998 33.0005)"/>
</clipPath>
<clipPath id="clip3_654_31748">
<rect width="126" height="126" fill="white" transform="translate(32.9998 33.0005)"/>
</clipPath>
</defs>
</svg>
