<svg width="52" height="49" viewBox="0 0 52 49" fill="none" xmlns="http://www.w3.org/2000/svg">
<path d="M48 25C48 38.2548 37.2548 49 24 49C10.7452 49 0 38.2548 0 25C0 11.7452 10.7452 1 24 1C37.2548 1 48 11.7452 48 25Z" fill="#EDDEE8"/>
<mask id="mask0_506_15820" style="mask-type:alpha" maskUnits="userSpaceOnUse" x="12" y="12" width="24" height="24">
<path d="M24 24C27.315 24 30 21.315 30 18C30 14.685 27.315 12 24 12C20.685 12 18 14.685 18 18C18 21.315 20.685 24 24 24ZM24 27C19.995 27 12 29.01 12 33V34.5C12 35.325 12.675 36 13.5 36H34.5C35.325 36 36 35.325 36 34.5V33C36 29.01 28.005 27 24 27Z" fill="url(#paint0_linear_506_15820)"/>
</mask>
<g mask="url(#mask0_506_15820)">
<g clip-path="url(#clip0_506_15820)">
<rect width="24" height="24" transform="translate(12 12)" fill="#8B418F"/>
<mask id="mask1_506_15820" style="mask-type:alpha" maskUnits="userSpaceOnUse" x="12" y="12" width="24" height="24">
<rect x="12" y="12" width="24" height="24" fill="url(#paint1_linear_506_15820)"/>
</mask>
<g mask="url(#mask1_506_15820)">
<rect x="12" y="12" width="24" height="24" fill="#A23F16"/>
</g>
</g>
</g>
<defs>
<linearGradient id="paint0_linear_506_15820" x1="12" y1="12" x2="36" y2="32" gradientUnits="userSpaceOnUse">
<stop stop-color="#FFA8FF"/>
<stop offset="1" stop-color="#FF8B5E"/>
</linearGradient>
<linearGradient id="paint1_linear_506_15820" x1="35.9004" y1="12" x2="21.2212" y2="40.7141" gradientUnits="userSpaceOnUse">
<stop stop-color="white"/>
<stop offset="1" stop-color="white" stop-opacity="0"/>
</linearGradient>
<clipPath id="clip0_506_15820">
<rect width="24" height="24" fill="white" transform="translate(12 12)"/>
</clipPath>
</defs>
</svg>
