<svg width="19" height="22" viewBox="0 0 19 22" fill="none" xmlns="http://www.w3.org/2000/svg">
<path d="M16.5 18C16.5 18.5523 16.9477 19 17.5 19C18.0523 19 18.5 18.5523 18.5 18V2C18.5 0.9 17.6 0 16.5 0H4.5C3.94772 0 3.5 0.447715 3.5 1C3.5 1.55228 3.94772 2 4.5 2H16.5V18Z" fill="#36003C"/>
<path d="M12.5 4H2.5C1.4 4 0.5 4.9 0.5 6V20.4835C0.5 21.2014 1.23405 21.6854 1.89392 21.4026L7.5 19L13.1061 21.4026C13.7659 21.6854 14.5 21.2014 14.5 20.4835V6C14.5 4.9 13.6 4 12.5 4Z" fill="#36003C"/>
</svg>
