<svg width="4" height="4" viewBox="0 0 4 4" fill="none" xmlns="http://www.w3.org/2000/svg">
<path d="M1.49914 3.174C1.29381 3.174 1.09947 3.13733 0.916141 3.064C0.740141 2.98333 0.582474 2.877 0.443141 2.745C0.311141 2.60567 0.204807 2.44433 0.124141 2.261C0.043474 2.07767 0.00314069 1.88333 0.00314069 1.678C0.00314069 1.47267 0.043474 1.27833 0.124141 1.095C0.204807 0.911666 0.311141 0.754 0.443141 0.622C0.582474 0.482666 0.740141 0.376333 0.916141 0.303C1.09947 0.222333 1.29381 0.182 1.49914 0.182C1.70447 0.182 1.89881 0.222333 2.08214 0.303C2.26547 0.376333 2.42314 0.482666 2.55514 0.622C2.69447 0.754 2.80447 0.911666 2.88514 1.095C2.96581 1.27833 3.00614 1.47267 3.00614 1.678C3.00614 1.88333 2.96581 2.07767 2.88514 2.261C2.80447 2.44433 2.69447 2.60567 2.55514 2.745C2.42314 2.877 2.26547 2.98333 2.08214 3.064C1.89881 3.13733 1.70447 3.174 1.49914 3.174Z" fill="#201A1B"/>
</svg>
