<svg width="19" height="22" viewBox="0 0 19 22" fill="none" xmlns="http://www.w3.org/2000/svg">
<path d="M16.5 18C16.5 18.5523 16.9477 19 17.5 19C18.0523 19 18.5 18.5523 18.5 18V2C18.5 0.9 17.6 0 16.5 0H4.5C3.94772 0 3.5 0.447715 3.5 1C3.5 1.55228 3.94772 2 4.5 2H16.5V18Z" fill="#201A1B"/>
<path fill-rule="evenodd" clip-rule="evenodd" d="M2.5 4H12.5C13.6 4 14.5 4.9 14.5 6V20.4835C14.5 21.2014 13.7659 21.6854 13.1061 21.4026L7.5 19L1.89392 21.4026C1.23405 21.6854 0.5 21.2014 0.5 20.4835V6C0.5 4.9 1.4 4 2.5 4ZM12.5 18.97V6H2.5V18.97C4.0351 18.3104 5.5701 17.6505 7.10483 16.9901C7.3571 16.8815 7.64292 16.8815 7.89522 16.9899L12.5 18.97Z" fill="#201A1B"/>
</svg>
